<?xml version="1.0" encoding="UTF-8" standalone="no"?>
<svg
   xmlns:dc="http://purl.org/dc/elements/1.1/"
   xmlns:cc="http://creativecommons.org/ns#"
   xmlns:rdf="http://www.w3.org/1999/02/22-rdf-syntax-ns#"
   xmlns:svg="http://www.w3.org/2000/svg"
   xmlns="http://www.w3.org/2000/svg"
   xmlns:sodipodi="http://sodipodi.sourceforge.net/DTD/sodipodi-0.dtd"
   xmlns:inkscape="http://www.inkscape.org/namespaces/inkscape"
   inkscape:version="1.0 (4035a4fb49, 2020-05-01)"
   sodipodi:docname="logo-white.svg"
   id="svg21"
   version="1.1"
   height="20"
   width="139">
  <metadata
     id="metadata25">
    <rdf:RDF>
      <cc:Work
         rdf:about="">
        <dc:format>image/svg+xml</dc:format>
        <dc:type
           rdf:resource="http://purl.org/dc/dcmitype/StillImage" />
        <dc:title></dc:title>
      </cc:Work>
    </rdf:RDF>
  </metadata>
  <sodipodi:namedview
     inkscape:current-layer="g19"
     inkscape:window-maximized="1"
     inkscape:window-y="-11"
     inkscape:window-x="-11"
     inkscape:cy="9.5554371"
     inkscape:cx="69.5"
     inkscape:zoom="10.122302"
     showgrid="false"
     id="namedview23"
     inkscape:window-height="986"
     inkscape:window-width="1920"
     inkscape:pageshadow="2"
     inkscape:pageopacity="0"
     guidetolerance="10"
     gridtolerance="10"
     objecttolerance="10"
     borderopacity="1"
     bordercolor="#666666"
     pagecolor="#ffffff" />
  <defs
     id="defs7">
    <linearGradient
       y2="100%"
       y1="0%"
       x2="17.503%"
       x1="72.195%"
       id="a">
      <stop
         id="stop2"
         stop-color="#33D35E"
         offset="0%" />
      <stop
         id="stop4"
         stop-color="#2AB6D9"
         offset="100%" />
    </linearGradient>
  </defs>
  <g
     id="g19"
     fill-rule="evenodd"
     fill="none">
    <path
       id="path9"
       d="M37.754 15.847c2.852 0 5.152-1.622 5.952-4.216h-3.897c-.376.665-1.14 1.066-2.055 1.066-1.237 0-2.065-.674-2.32-1.978h8.44c.051-.352.081-.694.081-1.037 0-3.335-2.537-5.95-6.201-5.95-3.568 0-6.175 2.564-6.175 6.049 0 3.473 2.628 6.066 6.175 6.066zm2.344-7.297h-4.596c.317-1.129 1.11-1.749 2.252-1.749 1.181 0 2 .613 2.344 1.75zm10.946 7.296c1.32 0 2.5-.434 3.43-1.188l.336.804h3.027V4.093h-2.919l-.4.88c-.94-.775-2.135-1.222-3.474-1.222-3.476 0-5.961 2.505-5.961 6.026 0 3.533 2.485 6.07 5.961 6.07zm.524-3.467c-1.467 0-2.545-1.108-2.545-2.593 0-1.475 1.069-2.583 2.545-2.583 1.466 0 2.544 1.108 2.544 2.583 0 1.485-1.078 2.593-2.544 2.593zm13.123 3.467c3.02 0 5.025-1.554 5.025-3.93 0-2.883-2.387-3.256-4.183-3.575-1.08-.193-1.95-.344-1.95-.99 0-.527.422-.838 1.05-.838.71 0 1.197.337 1.197 1.063h3.667c-.044-2.303-1.92-3.843-4.816-3.843-2.912 0-4.854 1.47-4.854 3.75 0 2.757 2.337 3.289 4.1 3.574 1.092.181 1.952.368 1.952 1.024 0 .587-.543.88-1.116.88-.742 0-1.32-.383-1.32-1.214h-3.77c.036 2.463 1.919 4.1 5.018 4.1zm8.1 3.858c2.936 0 4.344-1.257 5.877-4.736l4.764-10.863h-4.206l-2.249 6.263-2.412-6.263H70.31l4.698 10.43c-.53 1.414-.983 1.804-2.48 1.804H71.45v3.365h1.341zm18.504-3.858c3.5 0 5.973-2.515 5.973-6.048S94.796 3.75 91.295 3.75a5.332 5.332 0 00-2.825.784V0H84.6v15.474h2.897l.37-.844c.923.771 2.102 1.216 3.428 1.216zm-.523-3.467c-1.467 0-2.545-1.108-2.545-2.58 0-1.486 1.078-2.594 2.545-2.594 1.466 0 2.544 1.108 2.544 2.593 0 1.473-1.087 2.58-2.544 2.58zm13.598 3.467c1.32 0 2.5-.434 3.43-1.188l.336.804h3.027V4.093h-2.918l-.401.88c-.939-.775-2.135-1.222-3.474-1.222-3.476 0-5.96 2.505-5.96 6.026 0 3.533 2.484 6.07 5.96 6.07zm.524-3.467c-1.467 0-2.545-1.108-2.545-2.593 0-1.475 1.07-2.583 2.545-2.583 1.467 0 2.545 1.108 2.545 2.583 0 1.485-1.078 2.593-2.545 2.593zm12.653 3.095V9.403c0-1.447.702-2.3 1.923-2.3.986 0 1.483.657 1.483 1.98v6.39h3.915V8.543c0-2.897-1.733-4.773-4.373-4.773-1.47 0-2.733.565-3.58 1.508l-.537-1.172h-2.747v11.369h3.916zm13.748 0v-4.808l2.848 4.808h4.616l-3.902-5.95 3.543-5.419h-4.397l-2.708 4.454V0h-3.916v15.474h3.916z"
       fill-rule="nonzero"
       fill="#2D314D" />
    <g
       id="g17"
       fill="url(#a)">
      <path
         id="path11"
         d="M10.802 0L0 19.704h5.986L16.789 0z" />
      <path
         id="path13"
         d="M18.171 0L7.368 19.704h5.986L24.157 0z"
         opacity=".5" />
      <path
         id="path15"
         d="M25.539 0L14.737 19.704h5.986L31.525 0z"
         opacity=".15" />
    </g>
    <path
       id="path27"
       d="m 36.129679,15.58635 c -1.690146,-0.457984 -3.096268,-1.556463 -3.799694,-2.968368 -0.490291,-0.984103 -0.667531,-1.732613 -0.665767,-2.8116236 0.0029,-1.7746795 0.498309,-3.0189039 1.677281,-4.2125247 1.211033,-1.2260801 2.560836,-1.7683184 4.401905,-1.7683184 1.878622,0 3.23981,0.5300709 4.450032,1.7329214 0.812749,0.8077977 1.342311,1.7722427 1.570877,2.8608952 0.150693,0.7177471 0.189459,1.6158031 0.08635,2.0005331 l -0.05957,0.222281 h -4.187127 c -4.773131,0 -4.411488,-0.08271 -3.91545,0.895498 0.407647,0.803899 0.892876,1.100362 1.896041,1.158434 0.711336,0.04118 0.847323,0.01879 1.334994,-0.219807 0.29864,-0.146111 0.635994,-0.39628 0.749676,-0.555932 l 0.206695,-0.290275 h 1.876973 1.876974 l -0.06735,0.222281 c -0.03704,0.122255 -0.222248,0.520225 -0.411566,0.884377 -0.623291,1.198899 -1.996806,2.318329 -3.385766,2.759435 -0.958445,0.304383 -2.68682,0.347263 -3.635512,0.09019 z m 3.884954,-7.3703321 c -0.40373,-0.9662619 -1.134568,-1.42675 -2.264389,-1.42675 -1.107957,0 -1.77284,0.4302977 -2.183481,1.4131002 l -0.15257,0.3651514 h 2.373653 2.373654 z"
       style="fill:#ffffff;stroke-width:0.0987918" />
    <path
       id="path29"
       d="m 49.482091,15.589843 c -1.08218,-0.292957 -1.880529,-0.744671 -2.616043,-1.480185 -1.139812,-1.139813 -1.693519,-2.545993 -1.696047,-4.3072415 -0.0026,-1.8372525 0.500053,-3.1105383 1.698183,-4.3013989 1.246405,-1.2388432 2.572629,-1.7352358 4.404737,-1.64865 1.116406,0.052762 1.9713,0.3154808 2.761124,0.8485268 0.260293,0.1756699 0.484703,0.3061983 0.498687,0.290063 0.01398,-0.016135 0.120707,-0.2182762 0.237161,-0.4492019 l 0.211735,-0.419865 h 1.381076 1.381077 v 5.6311301 5.6311304 l -1.457178,-10e-4 -1.457179,-10e-4 -0.167505,-0.398743 -0.167506,-0.398744 -0.524037,0.347511 c -0.829604,0.55015 -1.558896,0.765073 -2.746851,0.809501 -0.808327,0.03023 -1.192748,-0.0033 -1.741434,-0.151817 z m 3.279445,-3.443864 c 0.512616,-0.261765 1.067917,-0.875162 1.237919,-1.36743 0.330736,-0.9577 0.07038,-2.2144794 -0.597005,-2.8818671 -0.467392,-0.4673922 -0.858537,-0.6373201 -1.585386,-0.6887523 -1.223555,-0.086579 -2.052791,0.3479208 -2.533891,1.3276989 -0.320657,0.65303 -0.378715,1.5598605 -0.1436,2.2429205 0.230087,0.668452 0.918839,1.303069 1.688146,1.555459 0.423854,0.139056 1.497771,0.03464 1.933817,-0.188029 z"
       style="fill:#ffffff;stroke-width:0.0987918" />
    <path
       id="path31"
       d="M 63.473703,15.711067 C 62.61322,15.567025 61.549379,15.080051 60.932574,14.547863 60.443601,14.125968 59.859112,13.002142 59.76188,12.296908 l -0.0647,-0.469261 1.814167,10e-4 1.814166,10e-4 0.161348,0.384325 c 0.190933,0.454796 0.526176,0.698761 1.058267,0.770129 0.873512,0.117163 1.57064,-0.471019 1.342505,-1.132699 -0.131231,-0.380615 -0.594656,-0.575974 -2.0564,-0.866876 C 61.42862,10.506382 60.558261,9.9654708 60.06635,8.6447259 59.793981,7.9134338 59.887289,6.6066121 60.260822,5.9210464 c 0.749175,-1.375 2.261522,-2.0955311 4.398382,-2.0955311 1.152343,0 1.890522,0.1517641 2.724548,0.5601468 1.045641,0.5120005 1.877214,1.6229497 1.994642,2.6647642 l 0.04851,0.4303839 h -1.791099 c -1.708115,0 -1.7911,-0.0089 -1.7911,-0.1920745 0,-0.1056409 -0.107291,-0.3168083 -0.238426,-0.4692608 -0.22004,-0.255812 -0.293084,-0.2771863 -0.94725,-0.2771863 -0.63085,0 -0.730144,0.026328 -0.902626,0.2393351 -0.130079,0.160641 -0.184055,0.3544944 -0.164157,0.5895725 0.04412,0.5212651 0.43723,0.7355582 1.830811,0.9980182 2.491249,0.4691891 3.338253,0.9118364 3.890222,2.0330436 0.289133,0.587314 0.324415,0.74885 0.319466,1.462674 -0.01321,1.906102 -1.122636,3.174073 -3.25417,3.719229 -0.719055,0.183902 -2.18246,0.247834 -2.904872,0.126906 z"
       style="fill:#ffffff;stroke-width:0.0987918" />
    <path
       id="path33"
       d="m 71.475835,18.002132 v -1.630064 l 0.864428,-5.93e-4 c 1.024239,-6.91e-4 1.491098,-0.113638 1.90353,-0.460676 0.297272,-0.250097 0.788545,-1.084735 0.788545,-1.339641 0,-0.07041 -1.003878,-2.350273 -2.23084,-5.0663619 C 71.574535,6.7887077 70.530913,4.4664268 70.482337,4.344172 l -0.08832,-0.2222815 h 2.059141 2.059141 l 1.214753,3.1615902 c 0.668114,1.7388747 1.238775,3.1375683 1.268136,3.1082073 0.02936,-0.02936 0.5503,-1.4409614 1.157643,-3.1368918 l 1.104261,-3.0835098 2.048229,-0.026737 c 1.624518,-0.021206 2.038117,-7.686e-4 1.999343,0.098792 -0.17171,0.4409028 -4.709935,10.7465666 -5.014752,11.3877886 -0.85846,1.805881 -1.860953,2.983628 -2.988958,3.511485 -0.803233,0.375879 -1.442347,0.489581 -2.751893,0.489581 h -1.073225 z"
       style="fill:#ffffff;stroke-width:0.0987918" />
    <path
       id="path35"
       d="m 89.978908,15.627758 c -0.716771,-0.193089 -1.141275,-0.381307 -1.651089,-0.732069 -0.241316,-0.16603 -0.459262,-0.301872 -0.484324,-0.301872 -0.02506,0 -0.116718,0.177825 -0.203681,0.395167 l -0.158115,0.395167 h -1.43328 -1.43328 V 7.7277896 0.07142857 h 1.926439 1.926439 V 2.3285327 4.5856368 l 0.478197,-0.2366572 c 0.730032,-0.3612889 1.462604,-0.5211481 2.386764,-0.5208315 1.714043,5.829e-4 2.988816,0.5155842 4.149656,1.6764245 1.188445,1.1884449 1.704867,2.4903059 1.704867,4.2978439 0,2.8975475 -1.652926,5.0963635 -4.349573,5.7860495 -0.877729,0.224485 -2.108755,0.241403 -2.85902,0.03929 z m 2.0103,-3.48471 C 92.872405,11.690294 93.364478,10.766817 93.33335,9.6204834 93.31345,8.8876092 93.030609,8.2920997 92.466655,7.7956873 91.966104,7.3550844 91.472508,7.1827079 90.728766,7.1887712 c -1.012098,0.00825 -1.739092,0.4297771 -2.199195,1.275137 -0.799392,1.4687464 -0.159162,3.2624268 1.370927,3.8408098 0.457993,0.173124 1.60948,0.084 2.08871,-0.16167 z"
       style="fill:#ffffff;stroke-width:0.0987918" />
    <path
       id="path41"
       d="m 102.85221,15.627727 c -1.35104,-0.34053 -2.68527,-1.294819 -3.437461,-2.458612 -0.497899,-0.770346 -0.859843,-1.941525 -0.929354,-3.007206 -0.181738,-2.7862411 1.442608,-5.2768565 3.957555,-6.0681286 0.57067,-0.1795498 0.91749,-0.217631 1.93054,-0.2119766 1.40231,0.00783 2.01119,0.1719857 2.95199,0.7958814 0.57825,0.3834687 0.59458,0.3788035 0.82172,-0.2347214 l 0.11886,-0.3210733 h 1.41263 1.41264 v 5.6311301 5.6311304 h -1.47115 -1.47115 l -0.15595,-0.389748 -0.15594,-0.389747 -0.56507,0.340268 c -0.99744,0.600627 -1.54752,0.759943 -2.75039,0.796584 -0.73557,0.02241 -1.27501,-0.01436 -1.66947,-0.113781 z m 3.25014,-3.479039 c 0.88022,-0.454748 1.34877,-1.293903 1.34525,-2.4092998 -0.003,-0.8575777 -0.24406,-1.40705 -0.85372,-1.9437009 -0.50771,-0.4469034 -0.98969,-0.6112523 -1.79259,-0.6112523 -1.1196,0 -2.05635,0.7001277 -2.36976,1.7711499 -0.41458,1.4167721 0.26811,2.8493731 1.59619,3.3495451 0.45332,0.170728 1.6102,0.08349 2.07463,-0.156442 z"
       style="fill:#ffffff;stroke-width:0.0987918" />
    <path
       id="path43"
       d="M 113.65991,9.7530206 V 4.1218905 h 1.33494 1.33493 l 0.24905,0.5631285 c 0.13697,0.3097206 0.26719,0.5812836 0.28938,0.6034734 0.0222,0.02219 0.2541,-0.137497 0.51535,-0.3548592 0.6071,-0.5051069 1.15093,-0.7754329 1.92907,-0.9588912 2.57857,-0.6079374 4.83464,0.7769908 5.36847,3.295536 0.10505,0.4956234 0.13927,1.5629512 0.14057,4.384484 l 0.002,3.729389 h -1.92644 -1.92644 l -5.5e-4,-3.48241 c -3.2e-4,-2.059433 -0.0417,-3.6304686 -0.10119,-3.844751 -0.0564,-0.2032625 -0.2529,-0.4960278 -0.44745,-0.6668443 -0.30504,-0.2678349 -0.41824,-0.3045025 -0.94005,-0.3045025 -0.80046,0 -1.28487,0.2547947 -1.64313,0.8642614 l -0.27594,0.4694273 -0.0294,3.4824091 -0.0294,3.48241 h -1.92174 -1.92173 z"
       style="fill:#ffffff;stroke-width:0.0987918" />
    <path
       id="path45"
       d="M 127.39197,7.7277896 V 0.07142857 h 1.92644 1.92644 V 4.3253045 c 0,2.3508276 0.038,4.2303728 0.085,4.2013396 0.0468,-0.028895 0.68026,-1.0316469 1.40779,-2.2283377 l 1.32277,-2.1758014 2.09933,-3.072e-4 c 1.15463,-1.68e-4 2.09932,0.020104 2.09932,0.045051 0,0.024947 -0.74761,1.1919248 -1.66135,2.5932836 -0.91375,1.4013589 -1.69226,2.6001005 -1.73003,2.6638704 -0.0393,0.066338 0.73493,1.3419132 1.80955,2.9813522 1.03301,1.575975 1.87821,2.89083 1.87821,2.921902 0,0.03107 -0.99045,0.05649 -2.20101,0.05649 h -2.201 l -1.37618,-2.328558 c -0.7569,-1.280706 -1.41133,-2.350281 -1.45429,-2.376832 -0.043,-0.02655 -0.0781,1.021299 -0.0781,2.328557 v 2.376833 h -1.92644 -1.92644 z"
       style="fill:#ffffff;stroke-width:0.0987918" />
  </g>
</svg>
